# xmcd
#
# Track frame offsets:
#        187
#        23845
#        38827
#        63482
#        81737
#        91177
#        119645
#        142800
#        167222
#        191202
#
# Disc length: 3157 seconds
#
# Revision: 1
# Processed by: cddbd v1.5PL3 Copyright (c) Steve Scherf et al.
# Submitted via: ExactAudioCopy v0.95a4
#
DISCID=8c0c530a
DTITLE=VENUS PETER - Big "Sad" Table
DYEAR=1900
DGENRE=
TTITLE0=The Tripmaster Monkey
TTITLE1=Stray (mono)
TTITLE2=Seesaw For A Rainyday
TTITLE3=Mind Bike
TTITLE4=My Own Place
TTITLE5=Silver Rising Sun
TTITLE6=Roller Coaster
TTITLE7=Love Is A Chance (mono)
TTITLE8=The Boxer
TTITLE9=Big Sad Table On The Road
EXTD=
EXTT0=
EXTT1=
EXTT2=
EXTT3=
EXTT4=
EXTT5=
EXTT6=
EXTT7=
EXTT8=
EXTT9=
PLAYORDER=
